<?xml version="1.0" encoding="utf-8"?>
<!-- Generator: Adobe Illustrator 18.1.1, SVG Export Plug-In . SVG Version: 6.00 Build 0)  -->
<svg version="1.1" id="Layer_1" xmlns="http://www.w3.org/2000/svg" xmlns:xlink="http://www.w3.org/1999/xlink" x="0px" y="0px"
	 viewBox="0 0 800 300" enable-background="new 0 0 800 300" xml:space="preserve">
<g>
	<g>
		<path fill="#00A79D" d="M294.6,125.4c4.6,0,9,0.9,13.1,2.6c4.1,1.8,7.7,4.2,10.7,7.2c3,3,5.4,6.6,7.2,10.7
			c1.8,4.1,2.6,8.4,2.6,13.1c0,4.6-0.9,9-2.6,13.1c-1.8,4.1-4.2,7.7-7.2,10.7c-3,3-6.6,5.4-10.7,7.2c-4.1,1.8-8.4,2.6-13.1,2.6
			c-4.6,0-9-0.9-13.1-2.6c-4.1-1.8-7.7-4.2-10.7-7.2c-3-3-5.4-6.6-7.2-10.7c-1.8-4.1-2.6-8.4-2.6-13.1c0-4.6,0.9-9,2.6-13.1
			c1.8-4.1,4.2-7.7,7.2-10.7c3-3,6.6-5.4,10.7-7.2C285.6,126.3,289.9,125.4,294.6,125.4z M294.6,136.5c-3,0-5.9,0.6-8.6,1.7
			c-2.7,1.1-5.1,2.8-7.3,4.9c-2.2,2.2-3.8,4.6-4.9,7.3c-1.1,2.7-1.7,5.6-1.7,8.6c0,3,0.6,5.9,1.7,8.6c1.1,2.7,2.8,5.2,4.9,7.3
			c2.2,2.2,4.6,3.8,7.3,4.9c2.7,1.1,5.6,1.7,8.6,1.7c3,0,5.9-0.6,8.6-1.7c2.7-1.1,5.2-2.7,7.3-4.9c2.2-2.2,3.8-4.6,4.9-7.3
			c1.1-2.7,1.7-5.6,1.7-8.6c0-3-0.6-5.9-1.7-8.6c-1.1-2.7-2.7-5.1-4.9-7.3c-2.2-2.2-4.6-3.8-7.3-4.9
			C300.5,137.1,297.6,136.5,294.6,136.5z"/>
		<path fill="#00A79D" d="M359.1,144c3.4,0,6.5,0.6,9.4,1.9c2.9,1.3,5.3,3,7.4,5.2c2.1,2.2,3.7,4.8,4.9,7.8c1.2,3,1.8,6.1,1.8,9.5
			c0,3.3-0.6,6.5-1.8,9.4c-1.2,3-2.8,5.5-4.9,7.8c-2.1,2.2-4.6,4-7.4,5.2c-2.9,1.3-6,1.9-9.4,1.9c-3.8,0-7-0.7-9.9-2.1l4-9.9
			c1.5,0.6,3.1,0.9,5,0.9c1.8,0,3.5-0.3,5.1-1c1.6-0.6,3-1.6,4.3-2.9c2.6-2.6,3.9-5.7,3.9-9.3c0-3.7-1.3-6.8-3.9-9.4
			c-2.7-2.6-5.8-3.9-9.4-3.9c-3.7,0-6.8,1.3-9.4,3.9s-3.9,5.7-3.9,9.4v19.4v22.2h-11.1v-64.7h11.1v3.7c1.8-1.4,3.8-2.6,6.2-3.5
			C353.4,144.4,356.1,144,359.1,144z"/>
		<path fill="#00A79D" d="M403.8,162.8c0.7,0.2,2,0.6,3.7,1.3c1.7,0.7,3.5,1.6,5.3,2.8c1.8,1.2,3.4,2.7,4.8,4.5c1.4,1.8,2,3.9,2,6.4
			c0,2.2-0.4,4.1-1.1,5.9c-0.7,1.8-1.7,3.4-3.1,4.7c-1.4,1.4-3,2.4-5,3.1c-2,0.7-4.2,1.1-6.6,1.1c-3.8,0-7.2-0.7-10.5-2
			c-3.2-1.4-5.8-3-7.8-5l7.7-7.7c1.6,1.9,3.3,3.1,5.1,3.7c1.8,0.6,3.3,0.8,4.6,0.8c1.9,0,3.3-0.4,4.2-1.1c0.9-0.7,1.4-1.6,1.4-2.7
			c0-0.7-0.3-1.4-0.9-1.9s-1.3-1-2.2-1.4c-0.8-0.4-1.7-0.7-2.5-0.9c-0.9-0.2-1.6-0.4-2.1-0.6c-0.7-0.2-2-0.7-3.7-1.3
			c-1.8-0.6-3.5-1.5-5.4-2.7c-1.8-1.2-3.4-2.6-4.8-4.4c-1.4-1.8-2-3.9-2-6.5c0-2.6,0.4-4.8,1.3-6.7c0.9-1.9,2.1-3.4,3.6-4.7
			c1.5-1.2,3.2-2.1,5.1-2.7c1.9-0.6,3.9-0.9,5.9-0.9c3.1,0,5.8,0.4,8,1.1c2.2,0.7,4,1.5,5.4,2.4c1.6,1,3,2.2,4.1,3.5l-7.8,7.8
			c-1.2-1.6-2.6-2.8-4.1-3.5c-1.5-0.7-3-1.1-4.7-1.1c-1.3,0-2.6,0.3-3.8,0.9c-1.3,0.6-1.9,1.6-1.9,3c0,0.7,0.3,1.4,0.8,1.9
			c0.6,0.5,1.2,1,2,1.3c0.8,0.3,1.6,0.6,2.5,0.9C402.3,162.4,403.1,162.6,403.8,162.8z"/>
		<path fill="#00AEEF" d="M469.5,156.9c2.5,1.7,4.4,3.9,5.9,6.6c1.5,2.7,2.2,5.7,2.2,8.9v0.2c0,2.6-0.5,5-1.5,7.3s-2.3,4.3-4.1,6
			c-1.7,1.7-3.7,3-6,4c-2.3,1-4.7,1.5-7.3,1.5h-18.4l4.4-11.1h13.9c2.2,0,4-0.8,5.5-2.3c1.5-1.5,2.3-3.3,2.3-5.5v-0.2
			c0-2.2-0.8-4-2.3-5.5c-1.5-1.5-3.3-2.3-5.5-2.3h-4.5h-18.1v15.7v11.1h-11.1v-26.8v-11.1v-26.8h29.2c2.6,0,5,0.5,7.3,1.5
			c2.3,1,4.3,2.3,6,4.1c1.7,1.7,3,3.7,4,6c1,2.3,1.5,4.7,1.5,7.3v0.2c0,2.1-0.3,4.1-1,6C471.5,153.7,470.6,155.4,469.5,156.9z
			 M462.1,145.6c0-2.2-0.8-4-2.3-5.5c-1.5-1.5-3.3-2.3-5.5-2.3h-18.1v15.7h18.1c2.2,0,4-0.8,5.5-2.3c1.5-1.5,2.3-3.3,2.3-5.5V145.6z
			"/>
		<path fill="#00AEEF" d="M500.5,145.3c2.2-0.9,4.7-1.4,7.4-1.4V155c-3.7,0-6.8,1.3-9.4,3.9c-2.6,2.7-3.9,5.8-3.9,9.4v23.2h-11.1
			v-23.2v-23.1h11.1v3.6C496.4,147.4,498.3,146.2,500.5,145.3z"/>
		<path fill="#00AEEF" d="M511,126.8h11.1v11.1H511V126.8z M511,191.4v-46.2h11.1v46.2H511z"/>
		<path fill="#00AEEF" d="M575.5,126.7v64.7h-11.1v-23.1c0-3.8-1.3-6.9-3.9-9.4c-2.6-2.6-5.7-3.9-9.3-3.9c-3.7,0-6.8,1.3-9.4,3.9
			s-3.9,5.7-3.9,9.4c0,3.6,1.3,6.7,3.9,9.3c1.2,1.3,2.7,2.3,4.3,2.9c1.6,0.6,3.3,1,5.1,1c1.8,0,3.4-0.3,4.9-0.9l4,9.9
			c-2.8,1.4-6.1,2.1-9.8,2.1c-3.4,0-6.5-0.6-9.4-1.9s-5.3-3-7.4-5.2c-2.1-2.2-3.7-4.8-4.9-7.8c-1.2-3-1.8-6.1-1.8-9.4
			c0-3.4,0.6-6.6,1.8-9.5c1.2-3,2.8-5.5,4.9-7.8c2.1-2.2,4.6-4,7.4-5.2c2.9-1.3,6-1.9,9.4-1.9c3,0,5.6,0.5,7.9,1.4
			c2.3,0.9,4.4,2.1,6.2,3.5v-22.2H575.5z"/>
		<path fill="#00AEEF" d="M629.2,186.8c0,3.3-0.6,6.5-1.9,9.4c-1.3,3-3,5.5-5.2,7.8c-2.2,2.2-4.8,4-7.8,5.3c-3,1.3-6.1,1.9-9.5,1.9
			c-2.8,0-5.4-0.4-7.8-1.3c-2.5-0.9-4.7-2.1-6.8-3.7l8-7.9c2,1.2,4.2,1.8,6.6,1.8c3.8,0,6.9-1.3,9.4-4c2.6-2.6,3.9-5.7,3.9-9.3
			v-18.6c0-3.6-1.3-6.7-3.9-9.4c-2.6-2.6-5.7-3.9-9.4-3.9c-3.6,0-6.7,1.3-9.4,3.9c-2.6,2.7-3.9,5.8-3.9,9.4c0,3.7,1.3,6.8,3.9,9.4
			c2.7,2.6,5.8,3.9,9.4,3.9c1.8,0,3.5-0.3,5-0.9l4.2,10.3c-2.8,1.1-5.8,1.7-9,1.7h-0.2c-3.3,0-6.5-0.6-9.4-1.9s-5.5-3-7.8-5.2
			c-2.2-2.2-4-4.8-5.3-7.8c-1.3-3-1.9-6.1-1.9-9.5s0.6-6.6,1.7-9.5s2.7-5.5,4.7-7.8c2-2.2,4.4-4,7.2-5.2c2.8-1.3,5.9-1.9,9.2-1.9
			c3.2,0,6,0.5,8.5,1.4c2.5,1,4.6,2.1,6.5,3.6v-3.6h11.1V186.8z"/>
		<path fill="#00AEEF" d="M670,173.9h-24.2c0.6,1.4,1.5,2.7,2.7,3.8c1.3,1.3,2.7,2.3,4.3,2.9c1.6,0.6,3.3,1,5.1,1
			c2.5,0,4.8-0.6,6.7-1.8l11.5,4.6c-2.2,2.6-4.9,4.6-8,6c-3.1,1.4-6.6,2.2-10.2,2.2c-3.4,0-6.6-0.6-9.5-1.9c-3-1.3-5.5-3-7.8-5.2
			c-2.2-2.2-4-4.8-5.2-7.8c-1.3-3-1.9-6.1-1.9-9.4c0-3.4,0.6-6.6,1.9-9.5c1.3-3,3-5.5,5.2-7.8c2.2-2.2,4.8-4,7.8-5.2
			c3-1.3,6.1-1.9,9.5-1.9c3.4,0,6.6,0.6,9.5,1.9c3,1.3,5.5,3,7.8,5.2c2.2,2.2,4,4.8,5.2,7.8c1.3,3,1.9,6.1,1.9,9.5
			c0,2-0.2,3.8-0.6,5.5H670z M657.9,155.1c-3.6,0-6.7,1.3-9.4,3.9c-1.2,1.2-2.1,2.5-2.7,3.9H670c-0.6-1.4-1.5-2.7-2.7-3.9
			C664.7,156.4,661.6,155.1,657.9,155.1z"/>
		<path fill="#00AEEF" d="M703.4,162.8c0.7,0.2,2,0.6,3.7,1.3c1.7,0.7,3.5,1.6,5.3,2.8c1.8,1.2,3.4,2.7,4.8,4.5c1.4,1.8,2,3.9,2,6.4
			c0,2.2-0.4,4.1-1.1,5.9c-0.7,1.8-1.7,3.4-3.1,4.7c-1.4,1.4-3,2.4-5,3.1c-2,0.7-4.2,1.1-6.6,1.1c-3.8,0-7.2-0.7-10.5-2
			c-3.2-1.4-5.8-3-7.8-5l7.7-7.7c1.6,1.9,3.3,3.1,5.1,3.7c1.8,0.6,3.3,0.8,4.6,0.8c1.9,0,3.3-0.4,4.2-1.1c0.9-0.7,1.4-1.6,1.4-2.7
			c0-0.7-0.3-1.4-0.9-1.9c-0.6-0.6-1.3-1-2.2-1.4c-0.8-0.4-1.7-0.7-2.5-0.9c-0.9-0.2-1.6-0.4-2.1-0.6c-0.7-0.2-2-0.7-3.7-1.3
			c-1.8-0.6-3.5-1.5-5.4-2.7c-1.8-1.2-3.4-2.6-4.8-4.4c-1.4-1.8-2-3.9-2-6.5c0-2.6,0.4-4.8,1.3-6.7c0.9-1.9,2.1-3.4,3.6-4.7
			c1.5-1.2,3.2-2.1,5.1-2.7c1.9-0.6,3.9-0.9,5.9-0.9c3.1,0,5.8,0.4,8,1.1c2.2,0.7,4,1.5,5.4,2.4c1.6,1,3,2.2,4.1,3.5l-7.8,7.8
			c-1.2-1.6-2.6-2.8-4.1-3.5c-1.5-0.7-3-1.1-4.7-1.1c-1.3,0-2.6,0.3-3.8,0.9c-1.3,0.6-1.9,1.6-1.9,3c0,0.7,0.3,1.4,0.8,1.9
			c0.6,0.5,1.2,1,2,1.3c0.8,0.3,1.6,0.6,2.5,0.9C701.8,162.4,702.7,162.6,703.4,162.8z"/>
	</g>
	<g>
		<rect x="128.2" y="84" fill="#00A79D" width="10.6" height="10.6"/>
		<rect x="127.7" y="65.8" fill="#00A79D" width="4.1" height="4.1"/>
		<g>
			<path fill="#00AEEF" d="M107.5,159.1c0,17,8.7,32.4,23.3,41.1l-14,23.3c-22.5-13.5-36.4-38.2-36.4-64.4H107.5z"/>
			<path fill="#00AEEF" d="M155.5,207.1c26.4,0,48-21.5,48-48c0-4.3-0.6-8.6-1.7-12.7l26.2-7.2c1.8,6.5,2.7,13.2,2.7,19.9
				c0,41.4-33.7,75.1-75.1,75.1c-6.8,0-13.5-0.9-20-2.7l7.2-26.2C146.8,206.5,151.1,207.1,155.5,207.1z"/>
			<path fill="#00A79D" d="M155.5,111.1h-13.3V97.6h13.3V84c26.2,0,50.9,14,64.4,36.4l-23.3,14C187.8,119.8,172.5,111.1,155.5,111.1
				z"/>
			<rect x="117.5" y="74" fill="#00AEEF" width="7" height="7"/>
			<rect x="141.3" y="73" fill="#00AEEF" width="8.8" height="8.8"/>
		</g>
		<path fill="#00AEEF" d="M170.8,170.3c0.9,0.5,2.6,1,3.5,1.3c0.6,0.2,1.2,0.4,1.8,0.5c2.4-3.8,3.8-8.3,3.8-13.1
			c0-13.5-10.9-24.4-24.4-24.4c-7.7,0-14.6,3.6-19.1,9.2c0.1,0.1,0.2,0.3,0.3,0.4c1.5,2,3.4,4.2,5.5,6.3c2.1,2.1,4.3,4.1,6.7,6
			c2.3,2,4.8,3.7,7.2,5.5c2.5,1.7,5,3.3,7.4,4.7C166,168.1,168.4,169.4,170.8,170.3z"/>
		<path fill="#00A79D" d="M131,159.1c0,13.5,10.9,24.4,24.4,24.4c6.2,0,11.8-2.3,16.2-6.1l-0.7-0.1l-1-0.2c-0.5-0.1-0.7-0.2-1.1-0.3
			c-2.9-0.6-5.8-1.7-8.8-2.9c-2.9-1.3-5.8-2.8-8.7-4.5c-2.8-1.7-5.6-3.7-8.2-5.9c-2.6-2.2-5.1-4.5-7.3-7c-1.3-1.5-2.5-3-3.7-4.7
			C131.4,154.2,131,156.6,131,159.1z"/>
		<path fill="#00A79D" d="M145.1,134.1c0,0-0.4-0.2-1.1-0.5c-0.7-0.3-1.7-0.8-3.1-1.2c-1.4-0.5-3.1-0.9-5.2-1.1
			c-2.1-0.1-4.8,0-7.4,1.9c-1.2,1-2.4,2.5-2.8,4.2c-0.3,0.8-0.3,1.7-0.4,2.5c0,0.8,0,1.7,0.2,2.5c0.2,1.6,0.7,3.2,1.3,4.7
			c0.3,0.8,0.6,1.4,1,2.3c0.3,0.7,0.7,1.3,1.1,2c1.7,2.9,3.7,5.5,5.9,8c2.2,2.5,4.7,4.8,7.2,6.9c5.2,4.2,10.9,7.8,16.7,10.3
			c2.9,1.2,5.8,2.3,8.6,3c0.4,0.1,0.6,0.2,1.1,0.3l1,0.2c0.6,0.1,1.3,0.3,2.1,0.3c1.4,0.2,2.8,0.3,4.1,0.3c2.6,0,5.1-0.5,7.1-1.5
			c2.1-1,3.3-2.9,3.7-4.4c0.4-1.5,0.2-2.7,0.1-3.5c-0.2-0.7-0.3-1.1-0.3-1.1s0,0.4-0.1,1.2c0,0.4-0.2,0.8-0.3,1.3
			c-0.2,0.5-0.4,1.1-0.7,1.6c-0.7,1.1-1.8,2-3.4,2.4c-1.6,0.4-3.6,0.3-5.8-0.1c-1.1-0.2-2.2-0.5-3.3-0.8c-1-0.3-2.6-0.8-3.6-1.3
			c-2.4-0.9-4.9-2.2-7.4-3.5c-2.5-1.4-5-3-7.6-4.6c-2.5-1.7-5-3.5-7.3-5.5c-2.4-2-4.6-4-6.7-6.1c-2.1-2.1-4-4.4-5.5-6.5
			c-0.4-0.6-0.8-1.3-1.2-1.9c-0.3-0.5-0.6-1.1-0.9-1.6c-0.6-1.1-1.1-2.2-1.4-3.3c-0.2-0.5-0.2-1-0.4-1.5c0-0.4-0.1-1,0-1.4
			c0-0.9,0.4-1.5,0.8-2.2c1.1-1.2,3-1.9,4.8-2.2c1.8-0.2,3.5-0.3,4.8-0.3c1.4,0,2.5,0.1,3.3,0.2
			C144.7,134.1,145.1,134.1,145.1,134.1z"/>
	</g>
</g>
</svg>
